<?xml version="1.0" encoding="UTF-8"?>
<!DOCTYPE svg PUBLIC "-//W3C//DTD SVG 1.1//EN" "http://www.w3.org/Graphics/SVG/1.1/DTD/svg11.dtd">
<!-- Creator: CorelDRAW 2018 -->
<svg xmlns="http://www.w3.org/2000/svg" xml:space="preserve" width="88.0228mm" height="50.9359mm" version="1.1" style="shape-rendering:geometricPrecision; text-rendering:geometricPrecision; image-rendering:optimizeQuality; fill-rule:evenodd; clip-rule:evenodd"
viewBox="0 0 4124.13 2386.5"
 xmlns:xlink="http://www.w3.org/1999/xlink">
 <defs>
  <style type="text/css">
   <![CDATA[
    .fil0 {fill:#FEFEFE;fill-rule:nonzero}
   ]]>
  </style>
 </defs>
 <g id="Слой_x0020_1">
  <metadata id="CorelCorpID_0Corel-Layer"/>
  <path class="fil0" d="M780.18 1920.81l-780.18 0c52.02,-35.87 95.51,-82.04 130.49,-138.53 34.98,-56.5 66.82,-148.43 95.5,-275.75l234.05 -1054.56c12.56,-57.41 21.53,-104.02 26.9,-139.91 5.38,-35.87 8.08,-68.14 8.08,-96.85 0,-30.48 -6.27,-60.52 -18.83,-90.12 -12.55,-29.59 -31.38,-58.73 -56.49,-87.43l780.15 0c-62.76,44.85 -108.94,92.38 -138.54,142.58 -29.6,50.23 -58.73,140.78 -87.44,271.72l-234.06 1054.56c-16.12,68.13 -26,117.91 -29.57,149.31 -3.59,31.38 -5.4,60.52 -5.4,87.42 0,32.3 5.84,63.22 17.5,92.82 11.66,29.6 30.92,57.84 57.84,84.74l0 0zm1588.61 -1883.16l578.38 0 -858.17 804.38 344.34 632.2c69.95,129.13 130.04,226.89 180.27,293.24 50.2,66.35 106.7,116.58 169.48,150.64 -95.06,17.96 -159.63,28.71 -193.71,32.3 -34.08,3.59 -72.62,6.27 -115.66,8.08 -104.02,0 -187.88,-8.08 -251.55,-24.22 -63.66,-16.15 -115.23,-42.16 -154.69,-78.02 -14.34,-10.75 -27.78,-24.19 -40.35,-40.35 -12.56,-16.14 -69.94,-127.33 -172.18,-333.59l-196.38 -392.77 -91.47 416.99c-16.13,68.13 -26.01,117.9 -29.57,149.31 -3.59,31.38 -5.4,60.52 -5.4,87.41 0,30.49 4.94,58.31 14.8,83.4 9.85,25.11 30.05,56.49 60.53,94.16l-780.17 0c52.01,-35.86 95.51,-82.5 130.49,-139.88 34.97,-57.39 66.81,-148.86 95.5,-274.4l231.36 -1054.56c14.36,-64.57 23.76,-113.45 28.24,-146.64 4.48,-33.16 6.73,-63.22 6.73,-90.12 0,-30.49 -6.27,-60.52 -18.83,-90.12 -12.56,-29.59 -31.38,-58.73 -56.5,-87.44l780.15 0c-59.18,41.26 -104,88.33 -134.49,141.23 -30.49,52.91 -60.08,143.94 -88.79,273.07l-86.09 384.7 551.5 -551.5c69.95,-69.95 111.21,-113.88 123.74,-131.82 12.56,-17.93 18.85,-34.08 18.85,-48.42 0,-8.97 -4.05,-19.28 -12.1,-30.95 -8.07,-11.65 -17.5,-23.76 -28.25,-36.32l0.01 0zm1755.34 51.12l-21.52 373.94c-91.47,-77.12 -170.81,-131.38 -238.08,-162.76 -67.24,-31.38 -138.53,-47.07 -213.86,-47.07 -73.53,0 -129.14,14.8 -166.81,44.39 -37.65,29.58 -56.49,69.49 -56.49,119.71 0,43.03 12.12,82.05 36.32,117.02 24.21,34.97 118.81,120.61 283.82,256.9 123.73,104.02 204.89,191.01 243.45,260.95 38.56,69.95 57.84,151.56 57.84,244.83 0,182.94 -67.25,338.95 -201.76,468.08 -134.51,129.14 -322.82,193.71 -564.95,193.71 -104.02,0 -201.33,-8.97 -291.9,-26.93 -90.55,-17.93 -174.4,-44.83 -251.53,-80.69l-51.12 -387.38c86.09,75.32 178.91,134.51 278.46,177.56 99.54,43.04 192.33,64.57 278.42,64.57 84.31,0 153.34,-20.2 207.15,-60.54 53.8,-40.35 80.69,-96.38 80.69,-168.14 0,-50.23 -13.45,-95.5 -40.35,-135.86 -26.9,-40.35 -111.18,-121.49 -252.88,-243.45 -130.92,-109.4 -216.12,-200.43 -255.57,-273.04 -39.46,-72.65 -59.17,-152.91 -59.17,-240.78 0,-181.15 69.95,-323.74 209.84,-427.73 139.88,-104.02 320.12,-156.04 540.73,-156.04 84.28,1.79 163.22,9.86 236.75,24.2 73.51,14.36 144.37,35.88 212.5,64.56z"/>
  <path class="fil0" d="M1231.57 2254.74l172.64 -200.67c3.78,-4.54 6.75,-7.68 8.88,-9.46 2.15,-1.76 4.75,-3.53 7.77,-5.29l53.37 0c-7.57,2.77 -13.5,7.63 -17.79,14.56 -4.28,6.95 -8.08,18.12 -11.35,33.52l-36.34 169.99c-0.77,3.28 -1.46,7.82 -2.09,13.63 -0.63,5.8 -0.94,9.97 -0.94,12.49 0,5.05 0.81,9.27 2.45,12.69 1.64,3.4 4.11,6.11 7.38,8.13l-71.56 0c7.57,-2.53 13.44,-7.26 17.61,-14.19 4.17,-6.95 8.02,-18.24 11.55,-33.89l35.59 -167.34 -173.03 200.65c-4.04,4.54 -7.13,7.76 -9.28,9.66 -2.15,1.89 -4.47,3.59 -7,5.11l-53.01 0c7.83,-2.78 13.89,-7.89 18.17,-15.33 4.3,-7.44 7.96,-18.36 10.99,-32.75l35.97 -169.99c1.26,-6.82 2.14,-11.93 2.64,-15.33 0.51,-3.42 0.76,-6.88 0.76,-10.42 -0.26,-5.55 -1.14,-9.9 -2.65,-13.06 -1.51,-3.16 -4.04,-5.87 -7.57,-8.13l71.94 0c-7.57,2.77 -13.5,7.68 -17.8,14.75 -4.28,7.07 -8.07,18.19 -11.35,33.33l-35.97 167.34zm267.53 49.6l-62.48 0c5.31,-2.78 9.72,-6.56 13.25,-11.37 3.53,-4.79 6.69,-13.5 9.46,-26.12l23.86 -110.56c1.01,-5.55 1.64,-8.88 1.89,-10.02 0.26,-1.14 0.37,-2.34 0.37,-3.61 -0.25,-4.28 -1.39,-8 -3.41,-11.16 -2.02,-3.16 -5.05,-5.5 -9.08,-7.01l18.94 0c6.3,0 12.04,-0.69 17.22,-2.08 5.18,-1.39 10.54,-3.59 16.09,-6.62l-17.03 79.49 85.17 0 8.34 -39c1.01,-5.55 1.64,-8.88 1.89,-10.02 0.26,-1.14 0.38,-2.34 0.38,-3.61 0,-4.28 -1.07,-8 -3.22,-11.16 -2.15,-3.16 -5.23,-5.5 -9.27,-7.01l18.93 0c6.31,0 12.05,-0.69 17.22,-2.08 5.18,-1.39 10.54,-3.59 16.09,-6.62l-26.88 123.16c-1.01,4.48 -1.96,9.78 -2.84,15.83 -0.88,6.06 -1.33,10.49 -1.33,13.25 -0.25,4.73 0.88,8.52 3.4,11.29 2.53,2.78 6.45,4.17 11.74,4.17 2.52,0 5.18,-0.32 7.96,-0.94 2.77,-0.64 5.42,-1.59 7.95,-2.84l-24.62 27.26c-2.02,0.24 -4.16,0.51 -6.43,0.75 -2.27,0.26 -4.41,0.39 -6.43,0.39 -9.35,0 -16.6,-2.34 -21.78,-7.01 -5.16,-4.67 -7.76,-11.42 -7.76,-20.26 0,-3.27 0.19,-6.49 0.58,-9.65 0.37,-3.16 1.2,-7.63 2.45,-13.44l8.71 -39.37 -85.56 0 -10.6 48.46c-0.75,2.78 -1.51,6.43 -2.27,10.97 -0.76,4.54 -1.01,7.57 -0.76,9.08 -0.24,3.29 0.51,6.45 2.28,9.48 1.76,3.03 4.28,5.66 7.57,7.95zm199.74 0l-62.47 0c6.07,-3.29 10.73,-7.44 14.02,-12.49 3.28,-5.05 6.18,-13.39 8.71,-24.99l23.46 -110.56c1.01,-5.8 1.64,-9.2 1.89,-10.21 0.26,-1.01 0.39,-2.15 0.39,-3.42 0,-4.28 -1.08,-8 -3.21,-11.16 -2.15,-3.16 -5.25,-5.5 -9.29,-7.01l18.93 0c6.32,0 12.06,-0.69 17.22,-2.08 5.18,-1.39 10.54,-3.59 16.09,-6.62l-8.32 36.34c9.08,-10.6 19.74,-18.88 31.99,-24.8 12.24,-5.93 25.55,-8.9 39.95,-8.9 14.89,0 26.12,3.29 33.69,9.85 7.57,6.56 11.61,15.52 12.11,26.88 9.35,-12.62 20.19,-21.83 32.57,-27.65 12.36,-5.8 25.48,-8.83 39.37,-9.08 15.64,0.26 27.52,3.72 35.59,10.41 8.08,6.63 12.12,15.78 12.12,27.39 -0.26,2.78 -0.89,7.14 -1.9,13.19 -1.01,6.06 -2.39,13.75 -4.16,23.03l-9.85 46.5c-1.26,4.73 -2.26,10.09 -3.03,16.02 -0.75,5.95 -1.14,10.3 -1.14,13.07 0,4.73 1.2,8.52 3.61,11.29 2.39,2.78 6.25,4.17 11.54,4.17 2.53,0 5.18,-0.32 7.96,-0.94 2.77,-0.64 5.43,-1.59 7.95,-2.84l-24.6 27.26c-2.02,0.24 -4.17,0.51 -6.45,0.75 -2.26,0.26 -4.41,0.39 -6.43,0.39 -9.35,0 -16.6,-2.34 -21.76,-7.01 -5.18,-4.67 -7.77,-11.42 -7.77,-20.26 -0.25,-2.77 -0.19,-5.66 0.19,-8.7 0.39,-3.03 1.33,-7.83 2.84,-14.39l15.53 -72.31c1.76,-8.34 2.64,-12.99 2.64,-14 0,-1.01 0.13,-2.15 0.39,-3.42 0,-7.57 -2.46,-13.5 -7.38,-17.8 -4.92,-4.28 -11.42,-6.43 -19.5,-6.43 -8.34,0 -16.79,2.15 -25.37,6.43 -8.58,4.3 -15.91,9.59 -21.96,15.91 -5.29,5.55 -9.65,12.06 -13.05,19.5 -3.42,7.44 -7.27,21.26 -11.55,41.46l-8.71 39.75c-1.76,7.57 -2.71,12.24 -2.84,14 -0.12,1.78 -0.19,3.54 -0.19,5.31 0,3.78 0.76,7.13 2.28,10.04 1.51,2.9 4.04,5.61 7.57,8.13l-62.47 0c5.55,-2.53 10.1,-6.32 13.63,-11.37 3.53,-5.05 6.69,-13.74 9.46,-26.12l16.67 -78c1.01,-5.05 1.82,-9.53 2.45,-13.44 0.64,-3.91 0.96,-7.26 0.96,-10.03 0,-6.32 -2.66,-11.42 -7.95,-15.34 -5.31,-3.91 -11.87,-5.98 -19.7,-6.25 -8.32,0 -16.72,2.15 -25.16,6.43 -8.47,4.3 -15.85,9.98 -22.15,17.05 -4.8,5.29 -8.84,11.61 -12.12,18.92 -3.29,7.33 -7.07,20.95 -11.36,40.9l-8.7 39.75c-0.76,2.78 -1.45,6.43 -2.09,10.97 -0.63,4.54 -0.94,7.57 -0.94,9.08 0,3.29 0.81,6.45 2.45,9.48 1.64,3.03 4.11,5.66 7.38,7.95zm418.2 -48.46l-10.98 37.48c-11.87,5.8 -23.48,10.1 -34.84,12.87 -11.35,2.78 -22.71,4.17 -34.07,4.17 -21.96,0 -38.17,-5.29 -48.66,-15.91 -10.47,-10.6 -15.71,-25.86 -15.71,-45.8 0,-32.56 10.47,-62.4 31.42,-89.55 20.94,-27.13 48.59,-40.7 82.91,-40.7 15.91,0 28.14,3.48 36.72,10.41 8.58,6.94 12.88,15.72 12.88,26.32 -0.26,12.36 -4.54,23.53 -12.88,33.5 -8.32,9.97 -20.06,18.49 -35.21,25.56 -12.62,6.05 -26.06,10.86 -40.32,14.39 -14.26,3.53 -28.08,5.8 -41.46,6.8 -0.24,1.01 -0.37,2.02 -0.37,3.03 0,1.01 0,1.89 0,2.65 0,13.63 3.92,24.17 11.74,31.61 7.83,7.44 18.54,11.17 32.17,11.17 12.88,0 24.99,-2.39 36.36,-7.18 11.35,-4.8 21.44,-11.74 30.29,-20.83zm-107.9 -40.13c23.48,-2.53 44.55,-8.58 63.22,-18.17 18.68,-9.59 28.02,-20.69 28.02,-33.31 0,-6.32 -2.47,-11.24 -7.38,-14.77 -4.92,-3.53 -10.79,-5.42 -17.61,-5.68 -14.88,0 -28.83,7.07 -41.83,21.2 -13,14.14 -21.13,31.05 -24.42,50.74zm176.65 88.97l-8.32 -35.58c4.79,5.29 10.53,9.33 17.22,12.12 6.7,2.77 14.08,4.03 22.15,3.78 20.69,0 37.48,-8.13 50.36,-24.42 12.87,-16.28 19.29,-36.53 19.29,-60.77 -0.24,-17.67 -4.09,-31.22 -11.54,-40.7 -7.45,-9.46 -17.87,-14.19 -31.24,-14.19 -13.12,0 -24.86,4.73 -35.22,14.19 -10.34,9.48 -17.54,23.93 -21.58,43.35l-32.17 146.13c-1.27,4.56 -2.09,8.47 -2.46,11.74 -0.37,3.29 -0.56,6.06 -0.56,8.34 0,3.28 0.82,6.38 2.45,9.27 1.64,2.9 4.11,5.74 7.38,8.52l-62.46 0c6.3,-4.03 11.1,-8.52 14.38,-13.44 3.28,-4.93 6.05,-13.07 8.34,-24.43l41.26 -192.33c1.01,-5.55 1.59,-8.88 1.7,-10.02 0.13,-1.14 0.32,-2.34 0.58,-3.61 0,-4.28 -1.08,-8 -3.21,-11.16 -2.15,-3.16 -5.25,-5.5 -9.29,-7.01l18.93 0c6.32,0 12.06,-0.69 17.22,-2.08 5.18,-1.39 10.54,-3.59 16.09,-6.62l-8.71 35.95 1.14 0c6.32,-10.6 14.51,-18.79 24.62,-24.6 10.1,-5.8 22.08,-8.71 35.95,-8.71 21.72,0 37.74,6.69 48.08,20.08 10.35,13.37 15.66,31.8 15.91,55.26 0,33.83 -9.72,61.71 -29.15,83.67 -19.44,21.96 -44.81,32.94 -76.1,32.94 -6.06,0 -11.61,-0.5 -16.66,-1.51 -5.05,-1.01 -9.85,-2.39 -14.39,-4.17zm203.92 -0.37l-71.18 0c7.07,-2.53 12.75,-7.26 17.05,-14.19 4.28,-6.95 8.19,-18.38 11.73,-34.27l36.36 -169.61c1.01,-5.31 1.81,-9.91 2.45,-13.82 0.63,-3.92 0.95,-7.89 0.95,-11.93 0,-5.55 -0.82,-9.9 -2.46,-13.06 -1.64,-3.16 -4.23,-5.87 -7.76,-8.13l71.56 0c-7.83,2.77 -13.76,7.57 -17.79,14.37 -4.04,6.82 -7.7,18.06 -10.98,33.71l-36.73 169.99c-1.25,5.55 -2.15,10.42 -2.65,14.57 -0.51,4.17 -0.75,7.89 -0.75,11.18 0,4.79 0.75,8.9 2.26,12.3 1.51,3.41 4.17,6.38 7.96,8.9zm56.78 -144.62l45.05 82.54c10.09,18.68 19.57,32.87 28.4,42.59 8.84,9.72 18.8,16.21 29.91,19.5 -5.29,1.01 -9.59,1.77 -12.87,2.28 -3.29,0.51 -7.57,0.75 -12.88,0.75 -17.67,0 -29.97,-2.65 -36.91,-7.95 -6.95,-5.31 -15.08,-16.54 -24.43,-33.71l-56.4 -101.83 104.87 -101.09c2.77,-2.53 4.66,-4.73 5.67,-6.62 1.01,-1.89 1.51,-3.72 1.51,-5.5 0,-2.02 -0.94,-4.09 -2.84,-6.25 -1.89,-2.15 -4.23,-3.85 -7,-5.1l68.91 0 -131.01 120.39zm205.44 110.54l-28.77 36.29c-3.78,1.27 -7.5,2.28 -11.17,2.9 -3.66,0.64 -7.38,0.95 -11.17,0.95 -19.93,0 -35.66,-6.5 -47.13,-19.5 -11.48,-13 -17.22,-30.47 -17.22,-52.44 0,-33.82 11.35,-62.27 34.07,-85.38 22.71,-23.09 51.24,-34.64 85.56,-34.64 2.78,0 5.81,0.13 9.08,0.39 3.29,0.24 6.45,0.51 9.47,0.75 4.29,0.76 8.96,1.64 14,2.66 5.05,1.01 8.58,1.38 10.6,1.14 2.77,0 6.56,-0.71 11.35,-2.09 4.8,-1.38 9.6,-3.21 14.39,-5.48l-26.88 126.88c-1.01,4.54 -1.94,9.59 -2.84,15.14 -0.88,5.55 -1.33,9.34 -1.33,11.31 0,4.54 1.33,8.13 3.98,10.79 2.66,2.66 6.62,3.85 11.93,3.59 3.03,0.26 5.87,0.07 8.52,-0.56 2.64,-0.64 5.24,-1.7 7.76,-3.22l-24.99 26.88c-2.53,0.24 -5.05,0.56 -7.57,0.94 -2.53,0.37 -4.54,0.58 -6.06,0.58 -8.83,0 -15.89,-2.41 -21.2,-7.2 -5.3,-4.8 -7.95,-11.74 -7.95,-20.83 0,-1.77 0.12,-3.6 0.37,-5.49 0.25,-1.89 1.14,-6.49 2.66,-13.82l23.09 -108.66c-5.05,-3.03 -10.42,-5.36 -16.1,-7 -5.66,-1.64 -11.92,-2.58 -18.73,-2.84 -23.48,0 -42.28,8.71 -56.42,26.06 -14.14,17.35 -21.2,38.87 -21.2,64.55 0,16.6 3.42,28.96 10.22,37.03 6.82,8.02 16.15,11.93 28.02,11.69 6.06,0.24 12.75,-0.64 20.06,-2.66 7.33,-2.02 14.51,-4.91 21.58,-8.71zm114.57 -145.75l56.04 0 27.26 127.96 67.77 -110.17c3.29,-5.29 5.36,-8.9 6.25,-10.79 0.88,-1.89 1.96,-4.23 3.21,-7.01l10.99 0c6.31,0 12.05,-0.69 17.22,-2.08 5.18,-1.39 10.54,-3.59 16.09,-6.62l-20.83 126.56c-1.78,9.53 -2.78,15.85 -3.03,18.88 -0.26,3.03 -0.37,5.29 -0.37,6.81 0,4.99 1.33,8.84 3.96,11.48 2.66,2.66 6.38,3.98 11.18,3.98 2.52,0 5.18,-0.32 7.95,-0.94 2.78,-0.64 5.42,-1.59 7.95,-2.84l-24.61 27.26c-2.01,0.24 -4.17,0.51 -6.43,0.75 -2.28,0.26 -4.43,0.39 -6.45,0.39 -9.33,0 -16.59,-2.41 -21.76,-7.2 -5.18,-4.8 -7.76,-11.49 -7.76,-20.08 0,-2.52 0.19,-5.8 0.56,-9.83 0.37,-4.04 1.19,-9.22 2.46,-15.53l17.8 -98.43 -95.04 153.33 -6.81 -6.82c-1.77,-1.51 -3.29,-3.78 -4.54,-6.8 -1.27,-3.03 -2.53,-7.95 -3.8,-14.77l-25.37 -121.91 -18.17 76.85c-6.3,26.25 -14.06,45.05 -23.28,56.42 -9.22,11.35 -19.76,17.03 -31.61,17.03 -7.33,0 -13.38,-2.39 -18.17,-7.2 -4.8,-4.79 -7.2,-10.97 -7.2,-18.54 0,-6.06 1.83,-11.61 5.49,-16.66 3.65,-5.05 8.51,-8.58 14.57,-10.6 0,4.79 0.88,8.71 2.66,11.74 1.77,3.03 4.8,4.54 9.08,4.54 5.55,0 10.73,-3.29 15.52,-9.85 4.8,-6.56 9.72,-19.31 14.77,-38.23l22.34 -84.05c-2.53,-4.04 -5.05,-7.45 -7.57,-10.22 -2.53,-2.78 -5.29,-5.05 -8.34,-6.82zm442.05 -82.92l-3.79 52.63c-5.8,-10.85 -13.56,-18.92 -23.28,-24.23 -9.72,-5.31 -21.89,-7.95 -36.53,-7.95 -34.58,0 -62.53,11.98 -83.86,35.96 -21.33,23.97 -31.87,54.64 -31.61,92 0,27.77 7.44,49.6 22.34,65.49 14.88,15.91 35.2,23.74 60.95,23.48 15.91,0 31.37,-2.65 46.38,-7.95 15.01,-5.31 28.84,-13.63 41.46,-24.99l-18.56 49.22c-12.87,5.29 -25.61,9.15 -38.23,11.55 -12.62,2.39 -24.99,3.59 -37.11,3.59 -35.84,0 -64.1,-10.28 -84.8,-30.86 -20.69,-20.56 -31.05,-48.64 -31.05,-84.24 -0.25,-42.9 14.21,-80.63 43.35,-113.2 29.15,-32.56 68.46,-48.83 117.93,-48.83 10.61,0 20.2,0.69 28.79,2.08 8.58,1.38 17.78,3.48 27.63,6.25zm145.62 214.29l-10.97 37.48c-11.87,5.8 -23.48,10.1 -34.84,12.87 -11.35,2.78 -22.71,4.17 -34.07,4.17 -21.96,0 -38.17,-5.29 -48.66,-15.91 -10.47,-10.6 -15.71,-25.86 -15.71,-45.8 0,-32.56 10.47,-62.4 31.42,-89.55 20.94,-27.13 48.59,-40.7 82.91,-40.7 15.91,0 28.14,3.48 36.72,10.41 8.58,6.94 12.88,15.72 12.88,26.32 -0.26,12.36 -4.54,23.53 -12.88,33.5 -8.32,9.97 -20.06,18.49 -35.21,25.56 -12.62,6.05 -26.06,10.86 -40.32,14.39 -14.26,3.53 -28.08,5.8 -41.46,6.8 -0.24,1.01 -0.37,2.02 -0.37,3.03 0,1.01 0,1.89 0,2.65 0,13.63 3.93,24.17 11.74,31.61 7.83,7.44 18.54,11.17 32.17,11.17 12.88,0 24.99,-2.39 36.36,-7.18 11.35,-4.8 21.44,-11.74 30.29,-20.83zm-107.9 -40.13c23.48,-2.53 44.55,-8.58 63.22,-18.17 18.68,-9.59 28.02,-20.69 28.02,-33.31 0,-6.32 -2.47,-11.24 -7.38,-14.77 -4.92,-3.53 -10.79,-5.42 -17.61,-5.68 -14.88,0 -28.83,7.07 -41.83,21.2 -12.99,14.14 -21.13,31.05 -24.42,50.74zm176.65 88.97l-8.32 -35.58c4.79,5.29 10.53,9.33 17.22,12.12 6.7,2.77 14.08,4.03 22.15,3.78 20.69,0 37.48,-8.13 50.36,-24.42 12.87,-16.28 19.3,-36.53 19.3,-60.77 -0.25,-17.67 -4.1,-31.22 -11.54,-40.7 -7.45,-9.46 -17.87,-14.19 -31.24,-14.19 -13.12,0 -24.86,4.73 -35.22,14.19 -10.34,9.48 -17.54,23.93 -21.58,43.35l-32.17 146.13c-1.27,4.56 -2.09,8.47 -2.46,11.74 -0.37,3.29 -0.56,6.06 -0.56,8.34 0,3.28 0.82,6.38 2.45,9.27 1.64,2.9 4.11,5.74 7.38,8.52l-62.46 0c6.3,-4.03 11.1,-8.52 14.38,-13.44 3.28,-4.93 6.05,-13.07 8.34,-24.43l41.26 -192.33c1.01,-5.55 1.59,-8.88 1.7,-10.02 0.13,-1.14 0.32,-2.34 0.58,-3.61 0,-4.28 -1.08,-8 -3.22,-11.16 -2.15,-3.16 -5.25,-5.5 -9.29,-7.01l18.93 0c6.32,0 12.06,-0.69 17.22,-2.08 5.18,-1.39 10.54,-3.59 16.09,-6.62l-8.71 35.95 1.14 0c6.32,-10.6 14.51,-18.79 24.62,-24.6 10.1,-5.8 22.08,-8.71 35.95,-8.71 21.72,0 37.74,6.69 48.08,20.08 10.35,13.37 15.66,31.8 15.91,55.26 0,33.83 -9.72,61.71 -29.15,83.67 -19.44,21.96 -44.81,32.94 -76.1,32.94 -6.05,0 -11.61,-0.5 -16.66,-1.51 -5.05,-1.01 -9.85,-2.39 -14.39,-4.17zm267.53 -98.42l0 1.51c11.36,-0.51 21.33,2.26 29.91,8.32 8.58,6.06 12.87,14.64 12.87,25.74 0,18.69 -9.46,34.77 -28.38,48.29 -18.94,13.5 -45.18,20.25 -78.76,20.25 -18.17,0 -32.06,-3.91 -41.65,-11.74 -9.59,-7.82 -14.38,-20.69 -14.38,-38.61 0,-19.44 3.46,-39.95 10.41,-61.52 6.94,-21.59 15.58,-38.19 25.93,-49.8 9.59,-10.6 20.75,-18.29 33.5,-23.09 12.75,-4.79 27.84,-7.2 45.24,-7.2 17.93,0.26 31.31,3.8 40.13,10.6 8.84,6.82 13.25,16.04 13.25,27.65 0,12.12 -4.04,22.71 -12.11,31.8 -8.08,9.08 -20.06,15.02 -35.97,17.8zm-76.48 -4.17l34.08 -3.03c20.44,-1.78 34.83,-5.43 43.15,-11.1 8.34,-5.63 12.63,-13.57 12.88,-23.86 0,-7.25 -2.53,-12.75 -7.57,-16.41 -5.05,-3.59 -12.75,-5.42 -23.09,-5.42 -13.63,0 -25.56,4.92 -35.78,14.71 -10.22,9.78 -18.11,24.79 -23.67,45.11zm-5.68 21.58c-1.51,5.5 -2.64,10.8 -3.4,15.78 -0.75,5.05 -1.14,9.46 -1.14,13.2 0,11.8 2.6,20.43 7.76,25.99 5.18,5.49 14.34,8.15 27.46,7.89 17.16,0 31.22,-3.91 42.21,-11.67 10.97,-7.76 16.47,-17.79 16.47,-30.1 0,-8.26 -3.66,-14.58 -10.99,-18.81 -7.31,-4.3 -19.29,-6.56 -35.96,-6.82 -5.8,0.26 -12.17,0.69 -19.11,1.33 -6.95,0.64 -14.71,1.71 -23.29,3.22zm333.01 56.04l-24.98 27.26c-2.02,0.24 -4.11,0.51 -6.25,0.75 -2.15,0.26 -4.11,0.39 -5.87,0.39 -9.34,0 -16.97,-2.6 -22.92,-7.77 -5.93,-5.16 -8.63,-11.54 -8.13,-19.11l0.37 -7.2c-9.08,11.85 -19.74,20.88 -31.99,27.07 -12.24,6.19 -25.43,9.27 -39.56,9.27 -15.14,0 -26.57,-3.47 -34.27,-10.41 -7.7,-6.94 -11.55,-16.47 -11.55,-28.58 0,-3.53 0.37,-8.2 1.14,-14 0.75,-5.81 2.15,-12.88 4.17,-21.2l17.41 -79.9c1.01,-5.29 1.64,-8.58 1.89,-9.83 0.26,-1.27 0.39,-2.53 0.39,-3.8 0,-4.28 -1.08,-8 -3.21,-11.16 -2.15,-3.16 -5.25,-5.5 -9.29,-7.01l18.94 0c6.32,0 12.06,-0.69 17.22,-2.08 5.18,-1.39 10.54,-3.59 16.09,-6.62l-26.12 119.25c-1.51,6.06 -2.53,11.05 -3.03,14.96 -0.5,3.91 -0.76,7 -0.76,9.28 0,7.83 2.41,13.94 7.2,18.36 4.8,4.43 12.25,6.63 22.34,6.63 15.14,0 28.64,-5.94 40.51,-17.79 11.85,-11.87 20.19,-28.53 24.99,-49.97l13.24 -60.21c1.01,-5.29 1.64,-8.58 1.9,-9.83 0.24,-1.27 0.37,-2.53 0.37,-3.8 0,-4.28 -1.08,-8 -3.21,-11.16 -2.15,-3.16 -5.24,-5.5 -9.28,-7.01l18.92 0c6.32,0 12.06,-0.69 17.23,-2.08 5.16,-1.39 10.53,-3.59 16.08,-6.62l-27.25 125.81c-1.52,6.75 -2.58,12.12 -3.22,16.02 -0.63,3.92 -0.95,7.01 -0.95,9.27 0,5.5 1.33,9.66 3.98,12.43 2.65,2.78 6.24,4.17 10.79,4.17 2.78,0 5.63,-0.32 8.52,-0.94 2.9,-0.64 5.61,-1.59 8.13,-2.84zm153.57 -20.45l-16.28 40.51c-8.08,3.78 -16.21,6.5 -24.42,8.13 -8.2,1.64 -17.35,2.46 -27.44,2.46 -27.01,0 -46.89,-6.37 -59.63,-19.12 -12.75,-12.75 -19.11,-29.71 -19.11,-50.92 0,-33.82 11.35,-62.59 34.07,-86.31 22.71,-23.73 49.73,-35.59 81.02,-35.59 14.39,0 25.68,3.16 33.89,9.47 8.21,6.3 12.43,14 12.68,23.09 0,7.57 -2.66,13.63 -7.95,18.17 -5.31,4.54 -12.12,6.82 -20.45,6.82 -2.77,0.24 -5.42,0.06 -7.95,-0.58 -2.53,-0.64 -5.05,-1.71 -7.57,-3.22 2.26,-1.51 4.04,-3.48 5.29,-5.87 1.27,-2.39 2.02,-4.99 2.28,-7.76 0,-4.3 -1.89,-8.07 -5.68,-11.36 -3.78,-3.28 -8.95,-4.92 -15.52,-4.92 -19.44,0 -35.72,9.03 -48.84,27.01 -13.12,17.99 -19.69,38.55 -19.69,61.71 0,15.14 3.98,27.31 11.93,36.66 7.95,9.27 19.87,13.95 35.78,13.95 11.11,0.24 22.27,-1.71 33.5,-5.93 11.24,-4.24 21.27,-9.72 30.1,-16.41z"/>
 </g>
</svg>
