<?xml version="1.0" encoding="UTF-8"?>
<!DOCTYPE svg PUBLIC "-//W3C//DTD SVG 1.1//EN" "http://www.w3.org/Graphics/SVG/1.1/DTD/svg11.dtd">
<!-- Creator: CorelDRAW 2018 -->
<svg xmlns="http://www.w3.org/2000/svg" xml:space="preserve" width="98.8089mm" height="131.734mm" version="1.1" style="shape-rendering:geometricPrecision; text-rendering:geometricPrecision; image-rendering:optimizeQuality; fill-rule:evenodd; clip-rule:evenodd"
viewBox="0 0 7868.98 10491.07"
 xmlns:xlink="http://www.w3.org/1999/xlink">
 <defs>
  <style type="text/css">
   <![CDATA[
    .fil0 {fill:white}
   ]]>
  </style>
 </defs>
 <g id="Слой_x0020_1">
  <metadata id="CorelCorpID_0Corel-Layer"/>
  <g id="location">
   <path class="fil0" d="M3934.8 5818c1084.84,0 1967.09,-882.62 1967.09,-1967.09 0,-1084.47 -882.25,-1967.09 -1967.09,-1967.09 -1084.84,0 -1967.09,882.25 -1967.09,1967.09 0,1084.84 882.25,1967.09 1967.09,1967.09zm0 -3606.44c904.18,0 1639.22,735.05 1639.22,1639.23 0,904.17 -735.04,1639.22 -1639.22,1639.22 -904.18,0 -1639.22,-735.05 -1639.22,-1639.22 0,-904.18 735.04,-1639.23 1639.22,-1639.23z"/>
   <path class="fil0" d="M3934.17 0c-2169.68,0 -3934.18,1742.81 -3934.18,3934.43 0,2294.96 1967.47,4642.71 3401.74,6292.71 5.21,6.56 235.43,263.93 519.93,263.93 0.62,0 23.92,0 25.28,0 284.25,0 514.73,-257.37 519.93,-263.93 1435.02,-1650 3402.11,-3997.5 3402.11,-6292.71 0,-2191.62 -1764.75,-3934.43 -3934.8,-3934.43zm38.42 9797.05c-6.94,6.56 -26.89,20.94 -44.24,32.09 -3.23,-8.8 -27.51,-28.26 -42.26,-43.62 -1201.69,-1382.48 -3230.36,-3715.73 -3230.36,-5851.09 0,-1807.74 1471.07,-3278.81 3278.44,-3278.81 1808.36,0 3279.19,1471.07 3279.19,3279.19 0,2134.99 -2028.8,4468.24 -3240.77,5862.24z"/>
  </g>
 </g>
</svg>
