<?xml version="1.0" encoding="UTF-8"?>
<!DOCTYPE svg PUBLIC "-//W3C//DTD SVG 1.1//EN" "http://www.w3.org/Graphics/SVG/1.1/DTD/svg11.dtd">
<!-- Creator: CorelDRAW 2018 -->
<svg xmlns="http://www.w3.org/2000/svg" xml:space="preserve" width="196.604mm" height="148.041mm" version="1.1" style="shape-rendering:geometricPrecision; text-rendering:geometricPrecision; image-rendering:optimizeQuality; fill-rule:evenodd; clip-rule:evenodd"
viewBox="0 0 19660.42 14804.08"
 xmlns:xlink="http://www.w3.org/1999/xlink">
 <defs>
  <style type="text/css">
   <![CDATA[
    .fil0 {fill:white}
   ]]>
  </style>
 </defs>
 <g id="Слой_x0020_1">
  <metadata id="CorelCorpID_0Corel-Layer"/>
  <g id="_686783736">
   <path class="fil0" d="M19331.61 3929.88c-1280.48,-1280.5 -2775.69,-2272.19 -4444,-2947.54 -1610.17,-651.8 -3311.71,-982.32 -5057.39,-982.34 -1745.62,0 -3447.12,330.49 -5057.29,982.32 -1668.46,675.38 -3163.68,1667.09 -4444.13,2947.54 -438.39,438.39 -438.39,1151.68 0,1590.07 212.35,212.35 494.72,329.3 795.05,329.3 300.33,0 582.69,-116.95 795.02,-329.3 2109.52,-2109.42 4919.12,-3271.18 7911.35,-3271.18 2992.25,0 5801.85,1161.73 7911.32,3271.23 212.38,212.35 494.72,329.3 795.05,329.3l0.05 -0.01c300.36,0 582.64,-116.97 795.05,-329.3 438.31,-438.39 438.31,-1151.7 -0.08,-1590.09zm-561.23 1028.83c-62.39,62.39 -145.44,96.81 -233.79,96.81l-0.05 0c-88.27,0.03 -171.29,-34.4 -233.73,-96.81 -2259.39,-2259.38 -5268.38,-3503.72 -8472.59,-3503.72 -3204.21,0 -6213.17,1244.28 -8472.61,3503.69 -62.42,62.39 -145.44,96.78 -233.73,96.78 -88.32,0 -171.34,-34.4 -233.79,-96.81 -128.91,-128.91 -128.91,-338.64 0,-467.55 1204.83,-1204.81 2611.41,-2137.81 4180.68,-2773.07 1515.11,-613.32 3116.42,-924.31 4759.46,-924.31 1643.14,0.03 3244.48,311.02 4759.56,924.35 1569.24,635.21 2975.8,1568.21 4180.63,2773.05 128.85,128.95 128.85,338.69 -0.02,467.59z"/>
   <path class="fil0" d="M16659.56 6601.95c-920.38,-920.38 -1994.91,-1633.11 -3193.76,-2118.39 -1157.37,-468.5 -2380.59,-706.07 -3635.56,-706.07 -1255,0 -2478.19,237.57 -3635.56,706.07 -1198.88,485.3 -2273.41,1198.01 -3193.79,2118.39 -212.38,212.35 -329.33,494.72 -329.33,795.07 0,300.35 116.97,582.69 329.33,795.07 212.38,212.3 494.74,329.25 795.05,329.25 300.36,0 582.69,-116.95 795.05,-329.25 1397.08,-1397.13 3257.74,-2166.57 5239.22,-2166.57 1981.49,0 3842.17,769.43 5239.24,2166.51 212.33,212.35 494.72,329.35 795.13,329.35 300.36,0 582.67,-116.95 795.05,-329.3 212.35,-212.33 329.33,-494.72 329.33,-795.07 -0.1,-300.34 -117.04,-582.71 -329.42,-795.06zm-561.29 1028.86c-62.44,62.44 -145.47,96.81 -233.76,96.81 -88.34,0 -171.34,-34.37 -233.79,-96.81 -1547.07,-1547.07 -3607.06,-2399.06 -5800.53,-2399.06 -2193.5,0 -4253.49,851.98 -5800.45,2399.06 -62.42,62.39 -145.47,96.76 -233.79,96.76 -88.32,0 -171.34,-34.37 -233.79,-96.84 -62.44,-62.39 -96.84,-145.39 -96.84,-233.73 0,-88.32 34.4,-171.37 96.84,-233.79 1671.48,-1671.48 3897.55,-2591.99 6268.08,-2591.99 2370.54,0 4596.58,920.51 6268.05,2591.99 62.42,62.42 96.81,145.47 96.81,233.79 0.01,88.34 -34.34,171.31 -96.83,233.81z"/>
   <path class="fil0" d="M13987.46 9274.06c-1109,-1108.97 -2585.4,-1719.74 -4157.24,-1719.74 -1571.81,0 -3048.24,610.76 -4157.24,1719.74 -212.35,212.38 -329.3,494.72 -329.27,795.1 0,300.33 116.95,582.64 329.27,794.94 212.35,212.43 494.72,329.38 795.07,329.38 300.36,0 582.69,-117 795.02,-329.33 684.29,-684.21 1596.02,-1061.09 2567.15,-1061.09 971.15,0 1882.88,376.87 2567.12,1061.09 212.28,212.38 494.64,329.38 795.07,329.38 300.38,0 582.69,-117 795.05,-329.33 212.35,-212.3 329.33,-494.67 329.33,-795.05 0,-300.38 -116.98,-582.71 -329.33,-795.09zm-561.29 1028.83c-62.42,62.42 -145.44,96.84 -233.76,96.84 -88.32,0 -171.34,-34.37 -233.76,-96.89 -834.23,-834.13 -1945.27,-1293.57 -3128.43,-1293.57 -1183.16,0 -2294.18,459.4 -3128.46,1293.63 -62.42,62.47 -145.42,96.84 -233.71,96.84 -88.29,0 -171.34,-34.37 -233.81,-96.89 -62.42,-62.39 -96.78,-145.42 -96.78,-233.73 -0.03,-88.32 34.37,-171.34 96.78,-233.79 959.09,-959.06 2236.18,-1487.25 3595.98,-1487.25 1359.8,0 2636.89,528.19 3595.98,1487.25 62.42,62.44 96.84,145.47 96.84,233.79 0,88.32 -34.4,171.27 -96.87,233.77z"/>
   <path class="fil0" d="M10800.98 12460.57c-259.34,-259.34 -604.07,-402.09 -970.76,-402.09 -366.69,0 -711.46,142.77 -970.76,402.09 -259.29,259.32 -402.09,604.1 -402.06,970.76 0,366.69 142.77,711.44 402.11,970.7 259.24,259.27 603.96,402.06 970.7,402.06 0.05,0 0.05,0 0.11,0 366.58,0 711.39,-142.77 970.7,-402.06 535.23,-535.23 535.23,-1406.19 -0.04,-1941.46zm-561.21 1380.22c-109.43,109.41 -254.82,169.57 -409.47,169.57l-0.05 0c-154.73,0 -300.14,-60.22 -409.5,-169.57 -225.8,-225.77 -225.8,-593.14 -0.03,-818.96 109.38,-109.38 254.79,-169.6 409.5,-169.6 154.7,0 300.14,60.22 409.5,169.6 225.79,225.79 225.79,593.14 0.05,818.96z"/>
  </g>
 </g>
</svg>
